<svg xmlns="http://www.w3.org/2000/svg" xmlns:xlink="http://www.w3.org/1999/xlink" width="500" zoomAndPan="magnify" viewBox="0 0 375 374.999991" height="500" preserveAspectRatio="xMidYMid meet" version="1.0"><defs><clipPath id="e298bf804b"><path d="M 103.59375 37.5 L 268 37.5 L 268 337.5 L 103.59375 337.5 Z M 103.59375 37.5 " clip-rule="nonzero"/></clipPath></defs><g clip-path="url(#e298bf804b)"><path fill="#fcffff" d="M 169.695312 170.582031 L 202.671875 170.582031 C 202.671875 134.148438 231.8125 104.46875 267.933594 104.46875 L 267.933594 138.023438 C 250.167969 138.023438 235.808594 152.570312 235.808594 170.570312 L 234.808594 204.125 C 234.808594 277.582031 175.953125 337.207031 103.59375 337.207031 L 103.59375 303.648438 C 157.902344 303.648438 201.832031 259.144531 201.832031 204.125 L 168.5625 204.125 L 168.5625 204.273438 C 168.5625 240.851562 139.558594 270.09375 103.59375 270.238281 L 103.59375 236.683594 C 121.359375 236.535156 135.441406 222.28125 135.585938 204.273438 L 103.59375 204.273438 L 103.59375 170.570312 L 136.574219 170.570312 C 136.574219 97.128906 195.285156 37.5 267.933594 37.5 L 267.933594 71.058594 C 213.625 71.058594 169.695312 115.566406 169.695312 170.582031 Z M 169.695312 170.582031 " fill-opacity="1" fill-rule="nonzero"/></g></svg>